<?xml version="1.0" encoding="utf-8"?>
<!-- Generator: Adobe Illustrator 16.0.3, SVG Export Plug-In . SVG Version: 6.00 Build 0)  -->
<!DOCTYPE svg PUBLIC "-//W3C//DTD SVG 1.1//EN" "http://www.w3.org/Graphics/SVG/1.1/DTD/svg11.dtd">
<svg version="1.1" id="Capa_1" xmlns="http://www.w3.org/2000/svg" xmlns:xlink="http://www.w3.org/1999/xlink" x="0px" y="0px"
	 width="258.074px" height="70px" viewBox="0 0 258.074 70" enable-background="new 0 0 258.074 70" xml:space="preserve">
<g>
	<path d="M0,0.097C7.251,0.113,14.504,0.1,21.755,0.107c0,0.699,0,1.398,0,2.098C16.76,2.68,11.952,4.929,8.411,8.489
		c-3.591,3.56-5.86,8.399-6.319,13.43c-0.7,0.003-1.394,0.003-2.092,0.003V0.097z"/>
	<path d="M41.659,0.044h20.389c4.607-0.028,9.483-0.06,13.679,2.12c2.709,1.376,4.613,4.102,5.065,7.102
		c0.102-3.073,0.013-6.15,0.045-9.225c17.465,0.006,34.924,0,52.389,0.006c2.388,8.736,4.777,17.473,7.164,26.208
		c0.711,2.508,1.354,5.038,1.961,7.573c1.096-4.417,2.411-8.776,3.614-13.168c1.903-6.871,3.819-13.742,5.724-20.612
		c4.296-0.006,8.587,0,12.884-0.002c-5.469,15.916-10.995,31.809-16.472,47.717c-3.822,0.013-7.647,0-11.472,0.008
		c-5.389-15.728-10.838-31.432-16.174-47.174c-0.07,3.053-0.024,6.109-0.02,9.161c-4.563,0.032-9.123,0.007-13.685,0.013
		c0,12.667,0,25.332,0,38c-4.082,0-8.165,0-12.248,0c0.004-12.666,0-25.33,0.004-37.997c-4.529,0-9.06-0.003-13.59,0
		c0.353,2.86,0.233,5.967-1.336,8.48c-1.252,2.057-3.377,3.396-5.575,4.257c2.86,0.73,5.62,2.384,7.082,5.024
		c1.524,2.655,1.65,5.885,1.09,8.833c-0.656,3.323-2.559,6.438-5.375,8.366c-2.488,1.751-5.532,2.494-8.524,2.764
		c-3.037,0.291-6.092,0.272-9.142,0.272c-5.829,0-11.657,0-17.484,0c0.006-6.222,0-12.441,0.006-18.664c3.907,0,7.82,0.002,11.727,0
		c0.019,3.065-0.026,6.13,0.024,9.195c3.296-0.019,6.584-0.007,9.879-0.005c1.322,0.031,2.703-0.055,3.894-0.689
		c2.331-1.131,3.762-3.848,3.346-6.409c-0.232-1.688-1.241-3.197-2.545-4.259c-1.153-0.706-2.52-1.064-3.863-1.043
		c-6.779,0.006-13.559,0.004-20.338,0.004c-1.795,0-3.616-0.039-5.38,0.352c-4.202,0.861-7.989,3.513-10.264,7.155
		c-1.575,2.47-2.381,5.377-2.463,8.298c-1.304,0.142-2.621,0.123-3.919-0.022c-0.056-3.986-1.65-7.926-4.417-10.799
		c-2.903-3.094-7.082-4.899-11.322-4.978c-0.113-1.32-0.12-2.643,0-3.96c3.39-0.12,6.754-1.21,9.451-3.292
		c3.868-2.904,6.282-7.649,6.3-12.491c1.331-0.17,2.671-0.174,3.995-0.01c0.031,3.512,1.285,6.993,3.483,9.731
		c2.905,3.695,7.531,5.989,12.236,6.018c7.196-0.004,14.398-0.004,21.586,0c1.638-0.047,3.358-0.331,4.693-1.342
		c1.72-1.239,2.684-3.447,2.407-5.551c-0.176-1.572-1.07-2.974-2.161-4.08c-1.247-1.024-2.942-1.219-4.499-1.232
		c-3.384-0.006-6.767-0.006-10.144,0c0.013,2.984,0,5.97,0.006,8.953c-3.907,0.007-7.813,0.004-11.719,0.004
		C41.659,12.449,41.653,6.247,41.659,0.044"/>
	<path d="M171.013,0.003c2.061,0,4.12-0.007,6.186,0.006c5.249,14.005,10.467,28.029,15.746,42.026
		c5.124-14.017,10.297-28.015,15.425-42.026c2.078-0.013,4.151-0.01,6.225-0.003c0,15.928,0,31.85,0,47.776
		c-1.431,0.017-2.866,0.006-4.297,0.011c-0.013-13.848,0.031-27.694-0.019-41.542c-5.08,13.852-10.188,27.688-15.272,41.537
		c-1.375,0.011-2.742,0.005-4.109,0c-5.19-13.853-10.351-27.721-15.575-41.563c0.014,13.856-0.005,27.71,0.008,41.563
		c-1.439,0.005-2.875,0.005-4.312,0C171.018,31.862,171.031,15.934,171.013,0.003"/>
	<path d="M221.021,0.006c1.745-0.01,3.496,0,5.242-0.003c4.266,6.512,8.538,13.023,12.791,19.541
		c4.215-6.518,8.443-13.023,12.656-19.541c1.728,0,3.456-0.007,5.181,0.003c-5.136,7.763-10.227,15.556-15.349,23.325
		c5.514,8.153,11.014,16.313,16.532,24.461c-1.771-0.005-3.541,0-5.312-0.005c-4.562-6.903-9.147-13.792-13.709-20.698
		c-4.43,6.908-8.886,13.795-13.32,20.698c-1.738,0.005-3.477,0.005-5.216,0c5.342-8.192,10.66-16.397,15.989-24.595
		C231.329,15.474,226.198,7.724,221.021,0.006"/>
	<path d="M0,25.92c0.698,0.002,1.398,0.002,2.097,0.007c0.422,4.596,2.351,9.038,5.431,12.478c3.605,4.097,8.803,6.712,14.233,7.233
		c-0.006,0.7-0.006,1.406-0.006,2.104c-7.251,0-14.504,0-21.755,0V25.92z"/>
	<path d="M43.253,57.448c0.845-0.841,2.111-1.017,3.239-0.909c1.033,0.089,2.129,0.486,2.752,1.361
		c0.41,0.566,0.48,1.291,0.537,1.965h-1.304c-0.183-0.571-0.278-1.248-0.788-1.637c-0.794-0.594-1.884-0.624-2.804-0.367
		c-0.889,0.252-1.494,1.42-0.944,2.239c0.433,0.548,1.19,0.63,1.82,0.817c1.121,0.32,2.368,0.378,3.358,1.064
		c1.033,0.738,1.134,2.212,0.73,3.32c-0.39,1.061-1.531,1.544-2.551,1.771c-1.531,0.282-3.357,0.151-4.455-1.085
		c-0.604-0.63-0.762-1.519-0.833-2.348c0.448-0.008,0.895-0.008,1.343-0.008c0.106,0.762,0.359,1.607,1.102,1.985
		c1.046,0.517,2.363,0.484,3.403-0.033c0.958-0.439,1.141-2.003,0.252-2.595c-1.494-0.774-3.308-0.612-4.77-1.462
		C41.975,60.634,42.164,58.487,43.253,57.448"/>
	<path d="M169.165,56.576c1.344-0.193,2.869,0.008,3.896,0.971c0.63,0.592,0.773,1.493,0.825,2.318c-0.436,0-0.871,0-1.304,0.006
		c-0.184-0.623-0.31-1.373-0.915-1.737c-0.832-0.511-1.921-0.535-2.828-0.215c-0.962,0.353-1.431,1.87-0.467,2.483
		c1.48,0.768,3.275,0.648,4.725,1.492c1.135,0.7,1.293,2.262,0.857,3.408c-0.396,1.065-1.543,1.552-2.57,1.777
		c-1.487,0.267-3.251,0.15-4.353-1.009c-0.663-0.63-0.84-1.562-0.915-2.43c0.449-0.008,0.895-0.008,1.342-0.008
		c0.12,0.756,0.347,1.601,1.091,1.979c1.046,0.523,2.364,0.497,3.403-0.02c0.975-0.428,1.157-2.023,0.25-2.607
		c-1.492-0.764-3.299-0.612-4.756-1.456c-1.078-0.675-1.166-2.192-0.675-3.252C167.194,57.332,168.157,56.715,169.165,56.576"/>
	<path d="M55.13,56.752c0.43-0.007,0.857,0,1.279,0c0.006,0.46,0.006,0.92,0.013,1.381c-0.435,0-0.862,0-1.292,0V56.752z"/>
	<path d="M140.933,56.752c0.415,0,0.825,0,1.242,0c0,3.409,0,6.813,0.006,10.213c-0.398,0-0.795,0-1.183,0
		c0.003-0.334,0.011-0.666,0.021-1c-0.937,1.449-3.187,1.669-4.358,0.397c-1.084-1.066-1.248-2.712-1.002-4.128
		c0.228-1.065,0.774-2.188,1.809-2.666c1.179-0.534,2.642-0.265,3.483,0.738C140.919,59.122,140.938,57.937,140.933,56.752
		 M138.25,60.552c-1.147,0.498-1.419,1.908-1.337,3.036c0.043,1.026,0.523,2.318,1.694,2.473c0.958,0.238,1.872-0.492,2.145-1.381
		c0.319-1.06,0.345-2.281-0.159-3.289C140.165,60.571,139.105,60.156,138.25,60.552"/>
	<path d="M221.753,56.752h1.285c0,0.46,0,0.92,0.005,1.381c-0.434,0-0.864,0-1.29,0C221.753,57.672,221.753,57.212,221.753,56.752"
		/>
	<path d="M233.28,56.752c0.418,0,0.825,0,1.248,0c-0.005,3.403-0.005,6.813,0,10.213c-0.396,0-0.793,0-1.177,0
		c0.007-0.327,0.011-0.662,0.019-0.986c-0.92,1.377-3.049,1.649-4.247,0.484c-1.203-1.079-1.394-2.861-1.076-4.361
		c0.239-1.015,0.774-2.067,1.764-2.526c1.172-0.541,2.652-0.276,3.491,0.731C233.27,59.122,233.288,57.937,233.28,56.752
		 M230.599,60.558c-0.706,0.296-1.135,1.021-1.256,1.759c-0.175,0.976-0.111,2.049,0.396,2.917c0.531,0.97,2.042,1.171,2.799,0.358
		c0.637-0.623,0.782-1.567,0.795-2.427c-0.021-0.787-0.139-1.674-0.751-2.248C232.077,60.402,231.253,60.264,230.599,60.558"/>
	<path d="M255.982,56.746c0.41,0,0.826,0.007,1.249,0.007c-0.008,3.409-0.008,6.813,0,10.213c-0.396,0-0.78,0-1.174-0.006
		c0.014-0.321,0.032-0.649,0.053-0.971c-0.581,0.688-1.388,1.249-2.325,1.203c-1.337,0.089-2.488-0.971-2.905-2.178
		c-0.472-1.449-0.32-3.134,0.51-4.425c0.939-1.594,3.491-1.745,4.6-0.264C255.976,59.135,255.982,57.943,255.982,56.746
		 M253.412,60.513c-0.851,0.291-1.303,1.187-1.398,2.023c-0.121,1.028-0.025,2.174,0.656,3.006c0.65,0.679,1.863,0.761,2.552,0.088
		c0.604-0.574,0.786-1.449,0.799-2.256c0.021-0.832-0.056-1.77-0.669-2.394C254.881,60.445,254.074,60.264,253.412,60.513"/>
	<path d="M72.734,57.49h1.267c-0.006,0.683-0.006,1.361-0.006,2.05c0.396,0,0.8,0,1.198,0c0,0.357,0,0.717,0,1.068
		c-0.398,0-0.801,0.007-1.198,0.007c0.043,1.684-0.076,3.377,0.057,5.06c0.347,0.196,0.756,0.202,1.141,0.271
		c0,0.358,0,0.713,0,1.073c-0.593,0.023-1.216,0.15-1.784-0.072c-0.567-0.256-0.681-0.95-0.675-1.505
		c-0.006-1.606,0-3.22,0.006-4.826c-0.345,0-0.692-0.007-1.033-0.007V59.54c0.341,0,0.688,0,1.033-0.008
		C72.734,58.851,72.734,58.172,72.734,57.49"/>
	<path d="M62.963,59.569c1.088-0.409,2.438-0.39,3.408,0.302c0.585,0.416,0.787,1.141,0.951,1.797
		c-0.403,0.007-0.794,0.012-1.19,0.02c-0.259-1.324-1.992-1.633-2.98-0.957c-0.485,0.352-0.359,1.126,0.164,1.386
		c1.115,0.565,2.488,0.489,3.547,1.207c1.002,0.803,0.737,2.472-0.201,3.22c-0.977,0.79-2.371,0.745-3.529,0.499
		c-1.122-0.256-1.688-1.398-1.815-2.45c0.398,0,0.801,0,1.203,0.013c0.171,1.581,2.219,1.859,3.34,1.103
		c0.46-0.322,0.581-1.115,0.057-1.436c-1.254-0.72-2.967-0.486-4.007-1.613C61.097,61.618,61.79,59.998,62.963,59.569"/>
	<path d="M80.56,60.312c1.335-1.48,4.026-1.297,5.135,0.354c0.586,0.875,0.548,1.958,0.586,2.961
		c-1.821,0.014-3.648-0.007-5.469,0.014c0.126,0.648,0.195,1.373,0.668,1.889c0.585,0.649,1.612,0.705,2.381,0.359
		c0.567-0.238,0.832-0.819,1.141-1.312c0.403,0.008,0.813,0.014,1.222,0.021c-0.296,0.881-0.775,1.783-1.644,2.21
		c-1.16,0.567-2.678,0.561-3.731-0.252c-0.863-0.643-1.309-1.712-1.335-2.765C79.413,62.556,79.665,61.221,80.56,60.312
		 M81.486,61.025c-0.416,0.403-0.517,0.995-0.661,1.531c1.385,0.012,2.771,0.006,4.164,0.006c-0.151-0.592-0.246-1.267-0.731-1.689
		C83.484,60.193,82.186,60.264,81.486,61.025"/>
	<path d="M92.563,60.394c0.592-0.63,1.367-1.177,2.274-1.084c0.789-0.063,1.456,0.41,1.897,1.016
		c0.868-1.032,2.469-1.347,3.635-0.656c0.75,0.474,0.908,1.424,0.92,2.244c0.018,1.682,0,3.37,0.006,5.052h-1.336
		c0-1.688,0-3.37,0.007-5.059c-0.02-0.415,0.012-0.938-0.372-1.217c-0.783-0.584-2.022-0.214-2.433,0.649
		c-0.239,0.498-0.207,1.064-0.226,1.601c0.005,1.344,0.005,2.685,0.005,4.025h-1.322c0-1.682,0.007-3.37,0.007-5.052
		c-0.019-0.436-0.007-0.959-0.392-1.261c-0.661-0.491-1.618-0.208-2.129,0.378c-0.459,0.521-0.498,1.26-0.504,1.929
		c0,1.334,0,2.671,0,4.006c-0.422,0-0.844,0-1.266,0c0.013-2.475,0.019-4.95,0-7.423c0.416-0.003,0.826-0.003,1.242-0.003
		C92.576,59.751,92.569,60.182,92.563,60.394"/>
	<path d="M107.376,59.96c0.969-0.732,2.299-0.775,3.445-0.492c0.738,0.183,1.508,0.7,1.588,1.521
		c0.134,1.655-0.102,3.338,0.107,4.982c0.246,0.082,0.492,0.138,0.751,0.182c-0.008,0.328-0.021,0.655-0.034,0.983
		c-0.402,0.025-0.804,0.063-1.203,0.025c-0.503-0.114-0.646-0.656-0.811-1.071c-0.725,0.674-1.67,1.16-2.686,1.102
		c-0.926,0.033-1.844-0.541-2.161-1.416c-0.277-0.896-0.1-2.029,0.738-2.565c1.095-0.743,2.495-0.497,3.716-0.854
		c0.431-0.14,0.404-0.682,0.354-1.047c-0.082-0.561-0.687-0.802-1.186-0.87c-0.598-0.076-1.285-0.051-1.756,0.365
		c-0.253,0.277-0.328,0.663-0.475,0.994c-0.396-0.003-0.793-0.003-1.191-0.011C106.715,61.145,106.802,60.388,107.376,59.96
		 M108.251,63.929c-0.692,0.252-0.945,1.246-0.396,1.765c0.769,0.711,2.022,0.384,2.766-0.201c0.682-0.543,0.542-1.481,0.593-2.245
		C110.256,63.621,109.214,63.607,108.251,63.929"/>
	<path d="M118.34,60.125c0.919-0.945,2.431-0.979,3.615-0.593c0.907,0.314,1.398,1.235,1.539,2.136
		c-0.392,0.007-0.784,0.012-1.18,0.02c-0.27-1.312-1.959-1.621-2.962-0.979c-0.504,0.354-0.378,1.161,0.158,1.407
		c1.127,0.571,2.508,0.497,3.565,1.228c0.825,0.682,0.743,2.054,0.114,2.842c-0.554,0.743-1.52,1.007-2.407,1.007
		c-0.912,0.02-1.954-0.092-2.577-0.837c-0.447-0.479-0.561-1.146-0.699-1.764c0.396,0,0.799,0,1.198,0
		c0.161,1.588,2.229,1.89,3.345,1.103c0.498-0.335,0.529-1.236-0.056-1.5c-1.166-0.566-2.591-0.484-3.649-1.285
		C117.476,62.24,117.626,60.854,118.34,60.125"/>
	<path d="M148.179,60.281c1.324-1.418,3.912-1.266,5.059,0.304c0.631,0.875,0.613,2.01,0.649,3.049
		c-1.833,0.008-3.659-0.019-5.492,0.014c0.155,0.698,0.232,1.499,0.807,2.004c0.652,0.566,1.687,0.57,2.423,0.15
		c0.467-0.253,0.676-0.77,0.928-1.203c0.423-0.007,0.838-0.007,1.26,0c-0.233,0.63-0.485,1.299-1.001,1.765
		c-0.788,0.747-1.954,0.931-2.993,0.785c-1.272-0.202-2.32-1.259-2.591-2.507C146.874,63.155,147.089,61.421,148.179,60.281
		 M149.099,61c-0.429,0.41-0.53,1.016-0.675,1.557c1.381,0.012,2.761,0.006,4.142,0.006c-0.128-0.586-0.217-1.234-0.676-1.663
		C151.129,60.199,149.81,60.244,149.099,61"/>
	<path d="M180.255,59.992c1.381-1.103,3.675-0.856,4.732,0.587c0.637,0.876,0.612,2.016,0.65,3.055
		c-1.828,0.014-3.662-0.031-5.495,0.018c0.164,0.701,0.239,1.495,0.807,2c0.661,0.566,1.682,0.577,2.419,0.156
		c0.473-0.251,0.68-0.775,0.938-1.209c0.416-0.007,0.839-0.007,1.253,0c-0.24,0.679-0.528,1.384-1.103,1.859
		c-1.512,1.246-4.146,0.925-5.103-0.872C178.435,63.822,178.655,61.309,180.255,59.992 M180.86,61
		c-0.436,0.402-0.541,1.008-0.682,1.557c1.38,0.012,2.761,0.006,4.141,0.006c-0.131-0.586-0.213-1.234-0.674-1.663
		C182.884,60.199,181.565,60.244,180.86,61"/>
	<path d="M190.254,62.134c0.216-1.438,1.394-2.816,2.932-2.816c0.911-0.106,1.726,0.402,2.35,1.021
		c-0.014-0.195-0.037-0.599-0.051-0.796c0.397-0.003,0.794-0.003,1.19-0.003c-0.019,2.394,0.006,4.78-0.012,7.174
		c0.018,1.199-0.511,2.526-1.695,2.993c-1.135,0.417-2.495,0.417-3.573-0.177c-0.654-0.321-0.882-1.046-1.071-1.688
		c0.429-0.011,0.857-0.011,1.293-0.011c0.428,1.228,2.07,1.309,3.041,0.725c0.878-0.593,0.721-1.77,0.846-2.685
		c-1.07,1.523-3.534,1.441-4.65,0.026C190.067,64.824,190.077,63.395,190.254,62.134 M192.824,60.521
		c-0.78,0.251-1.158,1.071-1.266,1.827c-0.144,0.957-0.144,2.034,0.417,2.86c0.725,1.003,2.436,0.832,3.049-0.208
		c0.604-1.028,0.63-2.362,0.207-3.459C194.855,60.634,193.739,60.156,192.824,60.521"/>
	<path d="M215.866,59.5c0.392-0.196,0.838-0.164,1.267-0.215c0,0.429,0,0.857,0,1.293c-0.423,0.05-0.856,0.062-1.254,0.207
		c-0.674,0.288-1.084,1.026-1.07,1.745c-0.019,1.475,0.005,2.956,0,4.435c-0.44,0-0.876,0-1.312-0.006
		c0.026-2.469,0.068-4.944,0.008-7.417c0.423-0.003,0.844-0.003,1.271,0c-0.056,0.279-0.169,0.82-0.22,1.092
		C215.055,60.338,215.332,59.759,215.866,59.5"/>
	<path d="M240.463,60.018c0.971-0.796,2.352-0.833,3.519-0.55c0.807,0.183,1.588,0.813,1.606,1.701
		c0.056,1.501-0.026,3.006,0.019,4.511c-0.076,0.449,0.536,0.373,0.807,0.463c-0.008,0.331-0.014,0.665-0.014,1.005
		c-0.528-0.024-1.158,0.19-1.594-0.202c-0.228-0.232-0.32-0.554-0.46-0.843c-0.984,0.963-2.558,1.455-3.837,0.807
		c-1.285-0.643-1.531-2.626-0.435-3.547c0.862-0.75,2.073-0.692,3.137-0.856c0.367-0.065,0.819-0.046,1.065-0.386
		c0.201-0.51,0.082-1.211-0.447-1.46c-0.661-0.322-1.48-0.354-2.155-0.053c-0.479,0.203-0.579,0.757-0.762,1.188
		c-0.396,0-0.793,0-1.185-0.008C239.866,61.169,239.929,60.445,240.463,60.018 M241.309,63.979
		c-0.824,0.353-0.774,1.728,0.101,1.992c0.857,0.232,1.892,0.037,2.516-0.625c0.516-0.567,0.383-1.391,0.441-2.099
		C243.382,63.647,242.279,63.576,241.309,63.979"/>
	<path d="M55.13,59.54c0.43,0,0.857,0,1.292,0.003c-0.018,2.473-0.013,4.948,0,7.423c-0.435,0-0.862,0-1.292,0
		C55.13,64.491,55.13,62.015,55.13,59.54"/>
	<path d="M202.031,59.54c0.446,0,0.894,0,1.348,0.003c-0.074,1.551-0.037,3.102-0.044,4.651c0.007,0.599,0.025,1.349,0.612,1.703
		c1.039,0.584,2.462-0.116,2.652-1.293c0.307-1.664,0.087-3.377,0.144-5.064h1.271c-0.004,2.476-0.004,4.951,0,7.426
		c-0.407,0-0.807,0-1.203,0c0.008-0.301,0.014-0.603,0.026-0.904c-0.648,0.772-1.626,1.277-2.658,1.127
		c-1.073,0-2.036-0.852-2.1-1.934C201.968,63.349,202.067,61.441,202.031,59.54"/>
	<path d="M221.753,59.54c0.426,0,0.862,0,1.29,0.003c-0.013,2.473-0.013,4.948,0,7.423c-0.428,0-0.864,0-1.29,0
		C221.758,64.491,221.758,62.015,221.753,59.54"/>
</g>
</svg>
