<?xml version="1.0" encoding="utf-8"?>
<!-- Generator: Adobe Illustrator 16.0.3, SVG Export Plug-In . SVG Version: 6.00 Build 0)  -->
<!DOCTYPE svg PUBLIC "-//W3C//DTD SVG 1.1//EN" "http://www.w3.org/Graphics/SVG/1.1/DTD/svg11.dtd">
<svg version="1.1" id="Capa_1" xmlns="http://www.w3.org/2000/svg" xmlns:xlink="http://www.w3.org/1999/xlink" x="0px" y="0px"
	 width="155.377px" height="29.195px" viewBox="0 0 155.377 29.195" enable-background="new 0 0 155.377 29.195"
	 xml:space="preserve">
<g>
	<path fill="#FFFFFF" d="M0,0.058c4.366,0.01,8.732,0.002,13.099,0.006c0,0.421,0,0.842,0,1.263
		c-3.008,0.287-5.902,1.641-8.034,3.784c-2.163,2.143-3.528,5.057-3.805,8.086C0.838,13.199,0.421,13.199,0,13.199V0.058z"/>
	<path fill="#FFFFFF" d="M25.082,0.026h12.275c2.773-0.017,5.709-0.036,8.236,1.276c1.631,0.829,2.776,2.47,3.05,4.275
		c0.061-1.85,0.007-3.703,0.026-5.554c10.516,0.003,21.027,0,31.542,0.003c1.438,5.26,2.875,10.52,4.313,15.779
		c0.428,1.51,0.815,3.032,1.18,4.56c0.66-2.659,1.452-5.284,2.177-7.928c1.146-4.137,2.3-8.273,3.444-12.411
		c2.588-0.003,5.171,0,7.759-0.001c-3.293,9.583-6.62,19.151-9.917,28.729c-2.303,0.008-4.604,0-6.907,0.005
		c-3.244-9.469-6.525-18.924-9.737-28.402c-0.042,1.838-0.016,3.678-0.013,5.516c-2.746,0.019-5.492,0.004-8.238,0.007
		c0,7.627,0,15.252,0,22.879c-2.458,0-4.916,0-7.374,0c0.003-7.626,0-15.25,0.003-22.876c-2.728,0-5.454-0.002-8.183,0
		c0.213,1.722,0.141,3.592-0.804,5.106c-0.755,1.238-2.033,2.044-3.356,2.563c1.721,0.439,3.383,1.436,4.264,3.025
		c0.918,1.598,0.993,3.543,0.655,5.318c-0.395,2-1.54,3.875-3.235,5.035c-1.498,1.055-3.331,1.503-5.133,1.665
		c-1.828,0.175-3.668,0.164-5.504,0.164c-3.51,0-7.018,0-10.527,0c0.004-3.747,0-7.491,0.004-11.237c2.353,0,4.708,0.002,7.061,0
		c0.011,1.846-0.016,3.691,0.015,5.537c1.983-0.012,3.964-0.006,5.948-0.004c0.796,0.019,1.627-0.032,2.344-0.415
		c1.404-0.682,2.266-2.316,2.015-3.858c-0.14-1.016-0.747-1.925-1.532-2.564c-0.694-0.425-1.518-0.641-2.326-0.627
		c-4.082,0.003-8.163,0.002-12.244,0.002c-1.082,0-2.178-0.023-3.24,0.211c-2.529,0.519-4.811,2.115-6.18,4.309
		c-0.947,1.486-1.434,3.237-1.482,4.995c-0.785,0.086-1.578,0.074-2.36-0.013c-0.034-2.399-0.994-4.772-2.659-6.502
		c-1.749-1.862-4.264-2.949-6.816-2.996c-0.069-0.795-0.073-1.592,0-2.385c2.041-0.072,4.066-0.729,5.689-1.982
		c2.329-1.749,3.783-4.605,3.794-7.521c0.8-0.103,1.608-0.104,2.405-0.005c0.019,2.114,0.773,4.21,2.098,5.858
		c1.748,2.225,4.533,3.606,7.367,3.623c4.332-0.002,8.668-0.002,12.996,0c0.986-0.028,2.021-0.199,2.826-0.808
		c1.035-0.745,1.615-2.075,1.449-3.342c-0.106-0.947-0.645-1.791-1.301-2.456c-0.752-0.616-1.772-0.734-2.709-0.742
		c-2.037-0.004-4.074-0.004-6.107,0c0.008,1.796,0,3.594,0.004,5.39c-2.353,0.004-4.704,0.002-7.057,0.002
		C25.082,7.495,25.078,3.76,25.082,0.026"/>
	<path fill="#FFFFFF" d="M102.961,0.001c1.239,0,2.48-0.004,3.725,0.003c3.159,8.433,6.301,16.875,9.479,25.303
		c3.084-8.439,6.198-16.866,9.286-25.303c1.252-0.008,2.5-0.005,3.748-0.001c0,9.589,0,19.175,0,28.763
		c-0.861,0.012-1.726,0.004-2.587,0.007c-0.008-8.337,0.019-16.673-0.012-25.011c-3.058,8.34-6.134,16.67-9.195,25.008
		c-0.827,0.008-1.65,0.003-2.474,0c-3.126-8.34-6.231-16.689-9.377-25.023c0.008,8.342-0.003,16.684,0.004,25.023
		c-0.865,0.003-1.729,0.003-2.595,0C102.964,19.183,102.972,9.593,102.961,0.001"/>
	<path fill="#FFFFFF" d="M133.069,0.003c1.051-0.006,2.105,0,3.156-0.002c2.567,3.92,5.14,7.841,7.701,11.765
		c2.537-3.924,5.083-7.841,7.62-11.765c1.04,0,2.079-0.004,3.118,0.002c-3.092,4.673-6.156,9.366-9.24,14.042
		c3.319,4.909,6.63,9.822,9.953,14.728c-1.065-0.003-2.132,0-3.197-0.003c-2.746-4.155-5.508-8.304-8.254-12.461
		c-2.667,4.158-5.35,8.306-8.02,12.461c-1.048,0.003-2.094,0.003-3.142,0c3.217-4.932,6.419-9.872,9.628-14.808
		C139.276,9.316,136.187,4.65,133.069,0.003"/>
	<path fill="#FFFFFF" d="M0,15.605c0.421,0.002,0.842,0.002,1.263,0.004c0.254,2.767,1.415,5.441,3.27,7.513
		c2.17,2.466,5.3,4.04,8.569,4.355c-0.003,0.421-0.003,0.846-0.003,1.267c-4.366,0-8.732,0-13.099,0V15.605z"/>
</g>
</svg>
